<svg width="957" height="968" viewBox="0 0 957 968" fill="none" xmlns="http://www.w3.org/2000/svg">
<g opacity="0.6" clip-path="url(#clip0_23_2)">
<path d="M-50.9533 356.268C10.423 285.781 131.629 376.97 307.25 337.061C459.359 302.479 468.11 210.622 589.642 215.177C678.431 218.487 775.183 269.755 828.356 359.072C886.997 457.551 865.68 557.81 859.696 582.139C832.983 691.263 753.698 748.826 725.728 768.487C610.488 849.44 481.173 835.254 419.136 828.479C186.1 802.957 -63.3861 636.583 -74.4947 455.701C-75.971 432.02 -78.658 388.098 -50.9533 356.268Z" fill="url(#paint0_linear_23_2)"/>
</g>
<defs>
<linearGradient id="paint0_linear_23_2" x1="533.823" y1="69.8268" x2="299.583" y2="775.635" gradientUnits="userSpaceOnUse">
<stop stop-color="#F3F7FF"/>
<stop offset="1" stop-color="#DEEEFE"/>
</linearGradient>
<clipPath id="clip0_23_2">
<rect width="937.962" height="671.376" fill="white" transform="translate(83.5776) rotate(21.4558)"/>
</clipPath>
</defs>
</svg>
